<svg xmlns="http://www.w3.org/2000/svg" width="24" height="24" viewBox="0 0 24 24">
  <g id="icon_hermes" transform="translate(-5136 -1030)">
    <circle id="椭圆_2" data-name="椭圆 2" cx="12" cy="12" r="12" transform="translate(5136 1030)" fill="#4d4d4d"/>
    <g id="组_635" data-name="组 635" transform="translate(5101.096 990.767)">
      <path id="联合_1" data-name="联合 1" d="M.006,8.555l.872-7.21A1.129,1.129,0,0,1,1.965.352L3.095.32,12.822,0S12.144,2.7,9.88,2.8l-6.267.213-.044.358,7.336-.241s-.7,2.781-2.433,2.837l-5.243.188-.046.374,5.7-.187s-.671,2.863-1.831,2.9l-4.216.138,0,.018-2,.055H.806A.806.806,0,0,1,.006,8.555Z" transform="translate(41.069 46.465)" fill="#fff"/>
      <path id="路径_2840" data-name="路径 2840" d="M55.507,93.6" transform="translate(-11.457 -37.405)" fill="#fff"/>
      <path id="路径_2841" data-name="路径 2841" d="M61.034,47.93" transform="translate(-15.843 -1.162)" fill="#fff"/>
    </g>
  </g>
</svg>
